<?xml version="1.0" standalone="no"?>
<!DOCTYPE svg PUBLIC "-//W3C//DTD SVG 20010904//EN"
 "http://www.w3.org/TR/2001/REC-SVG-20010904/DTD/svg10.dtd">
<svg version="1.0" xmlns="http://www.w3.org/2000/svg"
 width="588.000000pt" height="588.000000pt" viewBox="0 0 588.000000 588.000000"
 preserveAspectRatio="xMidYMid meet">
<metadata>
Created by potrace 1.14, written by Peter Selinger 2001-2017
</metadata>
<g transform="translate(0.000000,588.000000) scale(0.100000,-0.100000)"
fill="#000000" stroke="none">
<path d="M2739 5866 c-2 -2 -38 -7 -79 -10 -41 -4 -93 -10 -115 -13 -39 -5
-276 -50 -305 -58 -8 -2 -42 -11 -75 -20 -511 -136 -1011 -442 -1380 -846
-109 -119 -127 -140 -212 -257 -248 -340 -425 -742 -507 -1152 -16 -78 -18
-92 -40 -275 -14 -105 -15 -533 -3 -595 3 -14 8 -51 12 -84 8 -67 12 -92 26
-162 5 -28 12 -64 15 -80 2 -16 18 -79 34 -140 236 -891 904 -1637 1765 -1971
211 -82 472 -153 625 -169 25 -3 55 -7 67 -10 125 -26 662 -25 763 1 8 2 35 6
60 9 25 3 56 8 70 11 14 3 48 9 75 15 69 13 82 16 151 34 79 21 295 91 342
112 20 9 46 20 57 24 154 62 405 202 550 305 617 441 1034 1077 1185 1812 12
54 23 117 26 139 3 23 7 52 9 65 23 118 27 555 7 714 -57 448 -186 826 -404
1184 -65 108 -187 283 -238 341 -104 121 -134 153 -195 215 -374 375 -818 630
-1335 769 -91 24 -223 52 -285 60 -17 3 -52 8 -80 11 -27 4 -66 9 -85 12 -46
5 -496 13 -501 9z m391 -310 c83 -6 229 -24 325 -42 256 -46 603 -180 841
-324 68 -42 224 -148 234 -159 3 -3 23 -19 45 -36 67 -50 105 -84 230 -210
214 -214 360 -415 491 -676 69 -138 148 -337 174 -439 32 -128 49 -200 54
-230 3 -19 8 -46 10 -60 9 -46 26 -184 31 -245 6 -81 6 -337 0 -405 -7 -69
-16 -149 -20 -175 -2 -11 -7 -38 -10 -60 -9 -67 -13 -89 -39 -195 -45 -184
-117 -374 -213 -563 -318 -625 -895 -1109 -1568 -1315 -167 -52 -348 -86 -555
-107 -58 -6 -374 -6 -420 -1 -19 3 -57 7 -85 10 -64 7 -135 17 -160 21 -561
101 -1055 365 -1448 774 -421 440 -667 986 -722 1606 -8 81 -8 349 0 415 2 25
7 65 9 90 10 97 19 149 43 260 170 782 683 1440 1402 1800 93 47 285 125 361
148 175 52 319 84 435 97 33 4 63 9 66 11 3 1 59 6 125 10 65 3 120 7 121 8 3
3 147 -2 243 -8z"/>
<path d="M1552 4918 c-269 -36 -509 -221 -618 -478 -49 -114 -64 -197 -60
-330 2 -67 10 -142 20 -180 36 -138 139 -304 243 -392 25 -21 41 -38 36 -38
-4 -1 -57 -2 -118 -3 -118 -3 -141 -11 -169 -58 -14 -24 -16 -116 -16 -921 0
-878 0 -894 20 -926 11 -18 35 -39 53 -46 48 -19 3133 -17 3162 3 50 32 59 60
60 168 0 57 3 103 8 103 7 0 167 -81 462 -235 252 -131 324 -165 351 -165 36
0 88 31 106 62 10 19 13 218 15 1023 1 966 0 1001 -18 1041 -11 22 -31 46 -45
52 -51 24 -91 14 -227 -57 -73 -37 -226 -117 -342 -176 -115 -59 -229 -119
-253 -132 -23 -12 -46 -23 -50 -23 -4 0 -7 39 -7 88 1 106 -12 150 -53 178
-29 20 -45 22 -214 22 -101 1 -190 1 -199 1 -10 1 13 31 60 79 153 156 224
331 225 552 0 179 -44 317 -150 466 -104 147 -304 280 -461 309 -16 2 -48 8
-73 13 -98 18 -243 5 -360 -34 -217 -73 -399 -242 -480 -449 -26 -66 -40 -88
-40 -63 0 29 -60 150 -104 212 -180 251 -461 374 -764 334z m207 -242 c213
-35 401 -216 445 -429 13 -60 13 -182 1 -240 -25 -123 -126 -267 -235 -337
-224 -144 -507 -115 -691 69 -119 119 -169 242 -165 403 9 342 307 589 645
534z m1556 -6 c148 -31 300 -151 369 -291 158 -321 -8 -685 -358 -784 -174
-50 -388 10 -524 147 -137 136 -191 327 -148 512 70 298 359 480 661 416z
m-875 -794 c0 -6 17 -48 39 -92 41 -86 106 -173 180 -241 25 -24 41 -43 36
-44 -42 -2 -545 -3 -545 -1 0 2 27 28 60 58 90 84 172 208 201 303 11 37 29
47 29 17z m1479 -641 c4 -11 7 -344 6 -740 l0 -720 -1395 -1 c-767 0 -1401 2
-1407 4 -10 3 -13 160 -13 741 l0 736 1401 0 c1393 0 1402 0 1408 -20z"/>
<path d="M1690 2890 c-56 -7 -86 -26 -105 -66 -12 -27 -15 -89 -15 -361 0
-308 1 -330 20 -360 36 -60 32 -60 522 -59 437 1 447 1 475 22 54 40 56 49 56
404 0 283 -3 330 -17 358 -32 63 -35 63 -484 65 -224 1 -427 0 -452 -3z"/>
</g>
</svg>
